<?xml version="1.0" standalone="no"?>
<!DOCTYPE svg PUBLIC "-//W3C//DTD SVG 20010904//EN"
 "http://www.w3.org/TR/2001/REC-SVG-20010904/DTD/svg10.dtd">
<svg version="1.0" xmlns="http://www.w3.org/2000/svg"
 width="600.000000pt" height="600.000000pt" viewBox="0 0 600.000000 600.000000"
 preserveAspectRatio="xMidYMid meet">
<metadata>
Created by potrace 1.13, written by Peter Selinger 2001-2015
</metadata>
<g transform="translate(0.000000,600.000000) scale(0.100000,-0.100000)"
fill="#000000" stroke="none">
<path d="M1022 5689 c-382 -45 -693 -336 -768 -717 -12 -61 -14 -215 -12 -890
l3 -817 5 830 c5 818 6 831 28 910 85 309 328 549 637 631 67 18 140 19 1695
19 l1625 0 78 -23 c302 -87 531 -319 623 -627 16 -53 18 -122 24 -565 l6 -505
2 476 c2 400 -1 490 -14 560 -64 338 -320 612 -657 701 l-82 22 -1560 2 c-858
1 -1593 -2 -1633 -7z"/>
<path d="M5262 4028 l2 -763 6 732 c3 402 9 735 13 739 10 11 114 -62 185
-130 164 -157 265 -362 292 -591 l9 -80 -4 86 c-12 217 -117 441 -286 609 -58
57 -195 160 -214 160 -3 0 -4 -343 -3 -762z"/>
<path d="M5242 3033 c-34 -220 -137 -420 -289 -564 -120 -113 -250 -178 -438
-220 -97 -21 -121 -22 -862 -26 l-761 -5 -297 -306 c-163 -169 -292 -308 -287
-310 6 -2 99 88 208 200 109 112 242 247 294 301 l96 97 730 0 c778 0 836 3
989 51 230 71 416 231 527 454 59 116 114 314 106 380 -2 19 -8 0 -16 -52z"/>
</g>
</svg>
